<?xml version="1.0" encoding="utf-8"?>
<svg height="684px" version="1.1" viewBox="0 0 193 684" width="193px" xmlns="http://www.w3.org/2000/svg" xmlns:xlink="http://www.w3.org/1999/xlink">
<title>Remote</title>
<defs>
<ellipse cx="15.5101659" cy="15.5" id="path-1" rx="15.5101659" ry="15.5"/>
<filter filterUnits="objectBoundingBox" height="112.9%" id="filter-2" width="112.9%" x="-6.4%" y="-6.5%">
<feGaussianBlur in="SourceAlpha" result="shadowBlurInner1" stdDeviation="1.5"/>
<feOffset dx="0" dy="1" in="shadowBlurInner1" result="shadowOffsetInner1"/>
<feComposite in="shadowOffsetInner1" in2="SourceAlpha" k2="-1" k3="1" operator="arithmetic" result="shadowInnerInner1"/>
<feColorMatrix in="shadowInnerInner1" type="matrix" values="0 0 0 0 0.637487439   0 0 0 0 0.637487439   0 0 0 0 0.637487439  0 0 0 0.5 0"/>
</filter>
<ellipse cx="15.5101659" cy="15.5" id="path-3" rx="15.5101659" ry="15.5"/>
<filter filterUnits="objectBoundingBox" height="112.9%" id="filter-4" width="112.9%" x="-6.4%" y="-6.5%">
<feGaussianBlur in="SourceAlpha" result="shadowBlurInner1" stdDeviation="1.5"/>
<feOffset dx="0" dy="1" in="shadowBlurInner1" result="shadowOffsetInner1"/>
<feComposite in="shadowOffsetInner1" in2="SourceAlpha" k2="-1" k3="1" operator="arithmetic" result="shadowInnerInner1"/>
<feColorMatrix in="shadowInnerInner1" type="matrix" values="0 0 0 0 0.637487439   0 0 0 0 0.637487439   0 0 0 0 0.637487439  0 0 0 0.5 0"/>
</filter>
</defs>
<g fill="none" fill-rule="evenodd" id="Remote" stroke="none" stroke-width="1">
<path d="M116,0 C158.525926,0 193,34.4740743 193,77 L192.995007,91.1275243 C186.4853,167.341641 183,247.812019 183,331 C183,414.187981 186.4853,494.658359 192.995007,570.872476 L193,607 C193,649.525926 158.525926,684 116,684 L77,684 C34.4740743,684 0,649.525926 0,607 C0,586.317035 0.00192110607,574.271522 0.0057633182,570.863461 C0.0115266364,565.75137 10,414.184701 10,331 C10,247.815299 6.51497492,167.347986 0.0057633182,91.1365391 L0,77 C0,34.4740743 34.4740743,0 77,0 L116,0 Z" fill="#2E2E2E" id="Background"/>
<g id="numbers" transform="translate(21.000000, 520.000000)">
<g id="options-button" transform="translate(97.708365, 121.128141)">
<path d="M9.9861485,11.4516746 L21.9376789,11.4680779 C23.4284471,11.4701272 24.7778335,12.0751411 25.7550483,13.0523346 C26.7322631,14.0295281 27.3373064,15.3789014 27.3393882,16.8696695 C27.3414593,18.3528187 26.7421694,19.6963978 25.7715744,20.6697074 C24.8009794,21.643017 23.4590793,22.2460571 21.9800835,22.2481282 L10.0285531,22.2317249 C8.53778489,22.2296756 7.18839849,21.6246618 6.21118368,20.6474682 C5.23396887,19.6702747 4.62892565,18.3209015 4.62684385,16.8301333 C4.62477268,15.3469841 5.22406259,14.003405 6.1946576,13.0300954 C7.16525261,12.0567858 8.5071527,11.4537457 9.9861485,11.4516746 Z" fill="#4B4B4B" id="Rectangle-Copy-23" stroke="#C5C1C1" stroke-width="3" transform="translate(15.983116, 16.849901) rotate(-5.000000) translate(-15.983116, -16.849901) "/>
<text fill="#E6E6E6" font-family="Thonburi-Bold, Thonburi" font-size="6" font-weight="bold" id="OPTIONS" letter-spacing="0.075" transform="translate(14.251771, 4.706862) rotate(-5.000000) translate(-14.251771, -4.706862) ">
<tspan x="1.07169275" y="7.20686184">OPTIONS</tspan>
</text>
</g>
<g id="fav-button" transform="translate(56.878826, 122.345557)">
<rect fill="#4B4B4B" height="11" id="Rectangle-Copy-22" rx="5.5" stroke="#C5C1C1" stroke-width="3" width="33" x="1.5" y="12.5"/>
<text fill="#E6E6E6" font-family="Thonburi-Bold, Thonburi" font-size="6" font-weight="bold" id="FAV" letter-spacing="0.075">
<tspan x="10.7597656" y="6">FAV</tspan>
</text>
</g>
<g id="phone-button" transform="translate(22.481110, 121.433186)">
<path d="M19.3969096,11.1466293 C20.8800588,11.1445904 22.2236249,11.7439096 23.1969134,12.7145258 C24.1702018,13.685142 24.7732127,15.0270552 24.7752516,16.5060581 C24.7731687,18.0050003 24.1689702,19.3593056 23.1915388,20.339413 C22.2144522,21.3191747 20.8647282,21.9246299 19.3735422,21.9266798 L7.4410489,21.9430833 C5.95789964,21.9451222 4.61433358,21.345803 3.64104512,20.3751868 C2.66775665,19.4045706 2.06474579,18.0626574 2.06270689,16.5836545 C2.06478977,15.0847123 2.6689883,13.730407 3.64641964,12.7502996 C4.62350623,11.770538 5.97323029,11.1650827 7.4644163,11.1630328 Z" fill="#4B4B4B" id="Rectangle-Copy-20" stroke="#C5C1C1" stroke-width="3" transform="translate(13.418979, 16.544856) rotate(5.000000) translate(-13.418979, -16.544856) "/>
<text fill="#E6E6E6" font-family="Thonburi-Bold, Thonburi" font-size="6" font-weight="bold" id="PHONE" letter-spacing="0.075" transform="translate(15.403268, 4.401817) rotate(5.000000) translate(-15.403268, -4.401817) ">
<tspan x="5.31108044" y="6.90181674">PHONE</tspan>
</text>
</g>
<g id="pound-button" transform="translate(106.960135, 98.898873)">
<path d="M8.02171103,2.94671368 L25.7750816,3.05572327 C27.4474499,3.06604932 28.9603303,3.74759409 30.0578946,4.84464816 C31.155459,5.94170224 31.8377071,7.45426564 31.8488108,9.12662896 C31.8596627,10.761081 31.2069947,12.2451982 30.1430007,13.3234154 C29.0809718,14.3996413 27.6091348,15.071465 25.978289,15.0847348 L8.22491842,14.9757253 C6.55255011,14.9653992 5.03966965,14.2838544 3.94210535,13.1868004 C2.84454105,12.0897463 2.16229291,10.5771829 2.15118925,8.90481957 C2.14033729,7.27036754 2.79300528,5.78625032 3.85699926,4.70803312 C4.91902819,3.63180725 6.39086518,2.95998349 8.02171103,2.94671368 Z" fill="#4B4B4B" id="Rectangle-Copy-11" stroke="#C5C1C1" stroke-width="3" transform="translate(17.000000, 9.015724) rotate(-5.000000) translate(-17.000000, -9.015724) "/>
<text fill="#C5C1C1" font-family="Thonburi-Bold, Thonburi" font-size="10" font-weight="bold" id="#" letter-spacing="0.168904">
<tspan x="14.276835" y="13.1980729">#</tspan>
</text>
</g>
<g id="star-button" transform="translate(6.884378, 98.831005)">
<path d="M25.8303329,2.94169379 C27.4833701,2.93252477 28.9836309,3.5942495 30.0729247,4.67152578 C31.1603569,5.74696102 31.8382255,7.23652869 31.8496592,8.88647914 C31.8373693,10.6071142 31.153717,12.1516362 30.0481858,13.2692111 C28.9415217,14.3879313 27.4133885,15.0773072 25.7240473,15.0866776 L8.16966708,15.1840478 C6.51662986,15.1932168 5.01636906,14.5314921 3.9270753,13.4542158 C2.83964313,12.3787805 2.16177453,10.8892129 2.15034084,9.23926242 C2.16263069,7.51862733 2.84628304,5.97410535 3.95181417,4.85653049 C5.05847828,3.73781029 6.58661152,3.04843433 8.27595267,3.03906394 Z" fill="#4B4B4B" id="Rectangle" stroke="#C5C1C1" stroke-width="3" transform="translate(17.000000, 9.062871) rotate(5.000000) translate(-17.000000, -9.062871) "/>
<text fill="#C5C1C1" font-family="Thonburi-Bold, Thonburi" font-size="12" font-weight="bold" id="*" letter-spacing="0.2026848">
<tspan x="14.1690638" y="16.1079207">*</tspan>
</text>
</g>
<g id="KEY_NUMERIC_0" onclick="remote('KEY_NUMERIC_0')" transform="translate(55.953074, 96.914598)">
<rect fill="#4B4B4B" height="19" id="Rectangle" rx="9.5" stroke="#C5C1C1" stroke-width="3" width="33" x="1.5" y="1.5"/>
<text fill="#C5C1C1" font-family="Thonburi-Bold, Thonburi" font-size="16" font-weight="bold" id="0" letter-spacing="0.2702464">
<tspan x="13.123379" y="17.063357">0</tspan>
</text>
</g>
<g id="KEY_NUMERIC_9" onclick="remote('KEY_NUMERIC_9')" transform="translate(129.937265, 75.853311) rotate(-5.000000) translate(-129.937265, -75.853311) translate(112.084266, 64.926738)">
<rect fill="#4B4B4B" height="18.8531452" id="Rectangle" rx="9.4265726" stroke="#C5C1C1" stroke-width="3" width="32.7059978" x="1.5" y="1.5"/>
<text fill="#C5C1C1" font-family="Thonburi-Bold, Thonburi" font-size="16" font-weight="bold" id="9" letter-spacing="0.2702464">
<tspan x="13.4094964" y="17.6264256">9</tspan>
</text>
</g>
<g id="KEY_NUMERIC_8" onclick="remote('KEY_NUMERIC_8')" transform="translate(55.953074, 64.652903)">
<rect fill="#4B4B4B" height="19" id="Rectangle" rx="9.5" stroke="#C5C1C1" stroke-width="3" width="33" x="1.5" y="1.5"/>
<text fill="#C5C1C1" font-family="Thonburi-Bold, Thonburi" font-size="16" font-weight="bold" id="8" letter-spacing="0.2702464">
<tspan x="13.123379" y="17.701196">8</tspan>
</text>
</g>
<g id="KEY_NUMERIC_7" onclick="remote('KEY_NUMERIC_7')" transform="translate(18.737376, 75.853311) rotate(5.000000) translate(-18.737376, -75.853311) translate(0.884378, 64.926738)">
<rect fill="#4B4B4B" height="18.8531452" id="Rectangle" rx="9.4265726" stroke="#C5C1C1" stroke-width="3" width="32.7059978" x="1.5" y="1.5"/>
<text fill="#C5C1C1" font-family="Thonburi-Bold, Thonburi" font-size="16" font-weight="bold" id="7" letter-spacing="0.2702464">
<tspan x="12.5336268" y="17.6264256">7</tspan>
</text>
</g>
<g id="KEY_NUMERIC_6" onclick="remote('KEY_NUMERIC_6')" transform="translate(129.937265, 43.534567) rotate(-5.000000) translate(-129.937265, -43.534567) translate(112.084266, 32.607994)">
<rect fill="#4B4B4B" height="18.8531452" id="Rectangle" rx="9.4265726" stroke="#C5C1C1" stroke-width="3" width="32.7059978" x="1.5" y="1.5"/>
<text fill="#C5C1C1" font-family="Thonburi-Bold, Thonburi" font-size="16" font-weight="bold" id="6" letter-spacing="0.2702464">
<tspan x="13.4094964" y="17.2758379">6</tspan>
</text>
</g>
<g id="KEY_NUMERIC_5" onclick="remote('KEY_NUMERIC_5')" transform="translate(55.953074, 32.391209)">
<rect fill="#4B4B4B" height="19" id="Rectangle" rx="9.5" stroke="#C5C1C1" stroke-width="3" width="33" x="1.5" y="1.5"/>
<text fill="#C5C1C1" font-family="Thonburi-Bold, Thonburi" font-size="16" font-weight="bold" id="5" letter-spacing="0.2702464">
<tspan x="13.123379" y="17.3482524">5</tspan>
</text>
</g>
<g id="KEY_NUMERIC_4" onclick="remote('KEY_NUMERIC_4')" transform="translate(18.737376, 43.534567) rotate(5.000000) translate(-18.737376, -43.534567) translate(0.884378, 32.607994)">
<rect fill="#4B4B4B" height="18.8531452" id="Rectangle" rx="9.4265726" stroke="#C5C1C1" stroke-width="3" width="32.7059978" x="1.5" y="1.5"/>
<text fill="#C5C1C1" font-family="Thonburi-Bold, Thonburi" font-size="16" font-weight="bold" id="4" letter-spacing="0.2702464">
<tspan x="12.5336268" y="17.2758379">4</tspan>
</text>
</g>
<g id="KEY_NUMERIC_3" onclick="remote('KEY_NUMERIC_3')" transform="translate(129.934007, 12.478218) rotate(-5.000000) translate(-129.934007, -12.478218) translate(112.081008, 1.514270)">
<rect fill="#4B4B4B" height="18.8531452" id="Rectangle" rx="9.4265726" stroke="#C5C1C1" stroke-width="3" width="32.7059978" x="1.5" y="1.57474968"/>
<text fill="#C5C1C1" font-family="Thonburi-Bold, Thonburi" font-size="16" font-weight="bold" id="3" letter-spacing="0.2702464">
<tspan x="13.4094964" y="17">3</tspan>
</text>
</g>
<g id="KEY_NUMERIC_2" onclick="remote('KEY_NUMERIC_2')" transform="translate(55.953074, 1.418073)">
<rect fill="#4B4B4B" height="18.993072" id="Rectangle" rx="9.496536" stroke="#C5C1C1" stroke-width="3" width="33" x="1.5" y="1.50799628"/>
<text fill="#C5C1C1" font-family="Thonburi-Bold, Thonburi" font-size="16" font-weight="bold" id="2" letter-spacing="0.2702464">
<tspan x="13.123379" y="17">2</tspan>
</text>
</g>
<g id="KEY_NUMERIC_1" onclick="remote('KEY_NUMERIC_1')" transform="translate(18.740634, 12.478218) rotate(5.000000) translate(-18.740634, -12.478218) translate(0.887635, 1.514270)">
<rect fill="#4B4B4B" height="18.8531452" id="Rectangle" rx="9.4265726" stroke="#C5C1C1" stroke-width="3" width="32.7059978" x="1.5" y="1.57474968"/>
<text fill="#C5C1C1" font-family="Thonburi-Bold, Thonburi" font-size="16" font-weight="bold" id="1" letter-spacing="0.2702464">
<tspan x="12.5336268" y="17">1</tspan>
</text>
</g>
</g>
<g id="Middle-Low-Buttons" transform="translate(23.000000, 428.000000)">
<path d="M93.5613235,0 C102.127352,0 109.071489,6.93958638 109.071489,15.5 C109.071489,24.0604136 102.127352,31 93.5613235,31 L91.484439,30.996627 C85.4879567,29.3932035 79.3287994,28.55875 73.0478783,28.55875 C66.7669572,28.55875 60.6077998,29.3932035 54.6113175,30.996627 L51.5337771,31 C42.967749,31 36.0236112,24.0604136 36.0236112,15.5 C36.0236112,6.93958638 42.967749,0 51.5337771,0 L93.5613235,0 Z" fill="#B0B0B0" id="Path"/>
<g id="KEY_FASTFORWARD" onclick="remote('KEY_FASTFORWARD')" transform="translate(113.000000, 0.148676)">
<path d="M18.0008678,1.50086777 C21.7285502,1.50086777 25.1033333,3.01180961 27.5461957,5.45467206 C29.9890582,7.89753451 31.5,11.2723176 31.5,15 C31.5,18.7276824 29.9890582,22.1024655 27.5461957,24.5453279 C25.1033333,26.9881904 21.7285502,28.4991322 18.0007955,28.4991322 L2.79919213,28.4998651 C5.3884615,24.2222337 6.76578485,19.687922 6.76578485,15 C6.76578485,10.312078 5.3884615,5.77776626 2.79919213,1.50013494 Z" fill="#4B4B4B" id="Path" stroke="#C5C1C1" stroke-width="3"/>
<polygon fill="#C5C1C1" id="Path-Copy-2" points="26.9996955 10 26.9996955 20 20.9996955 16.667 20.9996955 20 11.9996955 15 20.9996955 10 20.9996955 13.333" transform="translate(19.499696, 15.000000) rotate(180.000000) translate(-19.499696, -15.000000) "/>
</g>
<g id="KEY_PLAY" onclick="remote('KEY_PLAY')" transform="translate(78.051158, 0.000000)">
<g id="Oval-Copy-9">
<use fill="#B0B0B0" fill-rule="evenodd" xlink:href="#path-1"/>
<use fill="black" fill-opacity="1" filter="url(#filter-2)" xlink:href="#path-1"/>
</g>
<polygon fill="#4B4B4B" id="Triangle-Copy-2" points="17.0111497 10.9970486 23.0111497 20.0029514 11.0111497 20.0029514" transform="translate(17.011150, 15.500000) rotate(90.000000) translate(-17.011150, -15.500000) "/>
</g>
<g id="KEY_PAUSE" onclick="remote('KEY_PAUSE')" transform="translate(36.023611, 0.000000)">
<g id="Oval-Copy-10">
<use fill="#B0B0B0" fill-rule="evenodd" xlink:href="#path-3"/>
<use fill="black" fill-opacity="1" filter="url(#filter-4)" xlink:href="#path-3"/>
</g>
<path d="M11.0072145,9 L15.009838,9 L15.009838,21 L11.0072145,21 L11.0072145,9 Z M17.0111497,9 L21.0137732,9 L21.0137732,21 L17.0111497,21 L17.0111497,9 Z" fill="#4B4B4B" id="Shape"/>
</g>
<g id="KEY_FASTREVERSE" onclick="remote('KEY_FASTREVERSE')" transform="translate(0.000000, 1.000419)">
<path d="M30.2008079,1.50013494 C27.6115385,5.77776626 26.2342151,10.312078 26.2342151,15 C26.2342151,19.687922 27.6115385,24.2222337 30.2008079,28.4998651 L14.9991322,28.4991322 C11.2714498,28.4991322 7.89666674,26.9881904 5.45380429,24.5453279 C3.01094184,22.1024655 1.5,18.7276824 1.5,15 C1.5,11.2723176 3.01094184,7.89753451 5.45380429,5.45467206 C7.89666674,3.01180961 11.2714498,1.50086777 14.9992045,1.50086777 Z" fill="#4B4B4B" id="Path" stroke="#C5C1C1" stroke-width="3"/>
<polygon fill="#C5C1C1" id="Path" points="21 9.99958139 21 19.9995814 15 16.6665814 15 19.9995814 6 14.9995814 15 9.99958139 15 13.3325814"/>
</g>
<g id="KEY_FRAMEFORWARD" onclick="remote('KEY_FRAMEFORWARD')" transform="translate(94.095694, 53.573238)">
<rect fill="#4B4B4B" height="18" id="Rectangle-Copy-13" rx="9" stroke="#C5C1C1" stroke-width="3" width="41" x="1.5" y="1.5"/>
<polygon fill="#C5C1C1" id="Path" points="31 6 31 15 30 15 29.999 10.899 21 14.5 21 11 14 11 14 10 21 10 21 6.5 29.999 10.099 30 6"/>
</g>
<g id="KEY_RESTART" onclick="remote('KEY_RESTART')" transform="translate(59.009576, 50.000000)">
<circle cx="14" cy="14" fill="#4B4B4B" id="Oval" r="12.5" stroke="#C5C1C1" stroke-width="3"/>
<rect fill="#C5C1C1" height="8.99073756" id="Rectangle" rx="2" width="8.99073756" x="9.5894797" y="9.9897084"/>
</g>
<g id="KEY_FRAMEBACK" onclick="remote('KEY_FRAMEBACK')" transform="translate(8.000000, 53.573238)">
<rect fill="#4B4B4B" height="18" id="Rectangle-Copy-12" rx="9" stroke="#C5C1C1" stroke-width="3" width="41" x="1.5" y="1.5"/>
<path d="M16.1473217,4.46446063 L18.5727972,7.46032357 C20.1099391,6.24255186 22.401359,5.80968015 24.6611177,6.50055772 C28.0507558,7.53687409 30.0855692,10.7091944 29.2060007,13.5861335 C29.1533265,13.7584229 29.0913948,13.9257458 29.0207753,14.0878567 L27.7860038,13.7100979 C27.8612111,13.5501842 27.9256772,13.3836393 27.9785041,13.2108501 C28.682159,10.9092989 27.0543082,8.37144262 24.3425978,7.54238953 C22.4720197,6.97049642 20.5743232,7.36111713 19.346055,8.41394295 L21.8112052,11.4587743 L11.9849498,13.625501 L16.1473217,4.46446063 Z" fill="#C5C1C1" id="Path"/>
</g>
</g>
<g id="Middle-Buttons" transform="translate(26.000000, 312.000000)">
<g id="KEY_RECORD" onclick="remote('KEY_RECORD')" transform="translate(56.000000, 92.000000)">
<path d="M15,1 C18.634621,1 21.9460894,2.4207021 24.4409047,4.74919634 C26.7165772,6.87315735 28.3136458,9.75163534 28.8613981,13 L1.13860192,13 C1.68635422,9.75163534 3.2834228,6.87315735 5.55909531,4.74919634 C8.05391057,2.4207021 11.365379,1 15,1 Z" fill="#974A4A" id="Path" stroke="#C5C1C1" stroke-width="2"/>
<circle cx="15" cy="7" fill="#C5C1C1" id="Oval" r="3"/>
</g>
<g id="KEY_LAST" onclick="remote('KEY_LAST')" transform="translate(101.000000, 81.000000)">
<rect fill="#C5C1C1" height="19" id="Rectangle-Copy-14" rx="9.5" width="35" x="0" y="0"/>
<text fill="#4B4B4B" font-family="Thonburi-Bold, Thonburi" font-size="8" font-weight="bold" id="LAST" letter-spacing="0.1351232">
<tspan x="7.2172536" y="13">LAST</tspan>
</text>
</g>
<g id="mute-button" transform="translate(5.000000, 81.000000)">
<rect fill="#C5C1C1" height="19" id="Rectangle" rx="9.5" width="35" x="0" y="0"/>
<g id="Group" stroke="#4B4B4B" transform="translate(11.000000, 3.000000)">
<polygon id="Path" points="9.45454545 0.590909091 9.45454545 12.4090909 3.45454545 9.45390909 3.54545455 9.45454545 3.54545455 3.54545455 3.457 3.54490909 3.45454545 9.45390909 0 9.45454545 0 3.54545455 3.457 3.54490909"/>
<line id="Line-4" x1="0.590909091" x2="12.4090909" y1="0.590909091" y2="12.4090909"/>
</g>
</g>
<g id="KEY_PVR" onclick="remote('KEY_PVR')" transform="translate(49.000000, 57.000000)">
<rect fill="#4B4B4B" height="18" id="Rectangle-Copy-24" rx="9" stroke="#C5C1C1" stroke-width="3" width="40" x="1.5" y="1.5"/>
<text fill="#C5C1C1" font-family="Thonburi-Bold, Thonburi" font-size="9" font-weight="bold" id="DVR" letter-spacing="0.1520136">
<tspan x="12.4608468" y="14">DVR</tspan>
</text>
</g>
<g id="Vol-Buttons" transform="translate(0.000000, 1.000000)">
<g id="vol-down-button" transform="translate(0.000000, 30.711246)">
<path d="M32.9990874,8.69082242 L32.999863,13.3083725 C32.999863,22.4210331 25.6125921,29.808304 16.4999315,29.808304 C7.38727097,29.808304 0,22.4210331 0,13.3083725 L0,-2.65620859e-14 L27.0114718,-2.65620859e-14 C27.1930872,3.53315664 29.4971925,6.66017798 32.9990874,8.69082242 Z" fill="#C5C1C1" id="Path"/>
<polygon fill="#4B4B4B" id="Rectangle-Copy-26" points="15.0967231 7.30751256 16.9032769 7.30751256 16.9032769 24.3075126 15.0967231 24.3075126" transform="translate(16.000000, 15.807513) rotate(90.000000) translate(-16.000000, -15.807513) "/>
</g>
<g id="vol-up-button" transform="translate(0.000000, 0.000000)">
<path d="M16.4999315,0 C25.6125921,0 32.999863,7.38727097 32.999863,16.4999315 L32.9990874,21.1174816 C29.3487397,23.2342094 26.9998879,26.5422398 26.9998879,30.2597751 C26.9998879,30.4111405 27.003782,30.5618271 27.0114993,30.711782 L0,30.7114135 L0,16.4999315 C0,7.38727097 7.38727097,0 16.4999315,0 Z" fill="#C5C1C1" id="Path"/>
<polygon fill="#4B4B4B" id="Path" points="17.5 4.51638434 17.5 11.2903843 25 11.2909609 25 13.0975146 17.5 13.0973843 17.5 19.8720911 15.5 19.8720911 15.5 13.0973843 8 13.0975146 8 11.2909609 15.5 11.2903843 15.5 4.51638434"/>
</g>
<text fill="#4B4B4B" font-family="Thonburi-Bold, Thonburi" font-size="9" font-weight="bold" id="VOL" letter-spacing="0.1520136">
<tspan x="5.11897955" y="33.8081367">VOL</tspan>
</text>
</g>
<g id="Channel-Buttons" transform="translate(111.000000, 0.000000)">
<text fill="#E6E6E6" font-family="Thonburi-Bold, Thonburi" font-size="9" font-weight="bold" id="CH/PG" letter-spacing="0.1520136">
<tspan x="0.460786312" y="34.8081367">CH/PG</tspan>
</text>
<g id="KEY_CHANNELDOWN" onclick="remote('KEY_CHANNELDOWN')" transform="translate(0.000000, 35.916550)">
<path d="M29.999,0 L30,11.6034644 C30,19.8874792 23.2844792,26.603 15.0004644,26.603 C6.7164497,26.603 0.000928886073,19.8874792 0.000928886073,11.6034644 L0,0 L29.999,0 Z" fill="#C5C1C1" id="Path"/>
<polygon fill="#4B4B4B" id="Triangle-Copy" points="15 7.603 21 16.603 9 16.603" transform="translate(15.000000, 12.103000) rotate(180.000000) translate(-15.000000, -12.103000) "/>
</g>
<g id="KEY_CHANNELUP" onclick="remote('KEY_CHANNELUP')">
<path d="M15.0004644,0 C23.2844792,0 30,6.71552081 30,14.9995356 L29.999,26.602 L0,26.602 L0.000928886073,14.9995356 C0.000928886073,6.71552081 6.7164497,0 15.0004644,0 Z" fill="#C5C1C1" id="Path"/>
<polygon fill="#4B4B4B" id="Triangle" points="15 9 21 18 9 18"/>
</g>
</g>
<g id="KEY_INFO" onclick="remote('KEY_INFO')" transform="translate(57.000000, 18.000000)">
<circle cx="13.5" cy="13.5" fill="#4B4B4B" id="Oval" r="12" stroke="#C5C1C1" stroke-width="3"/>
<text fill="#C5C1C1" font-family="Thonburi-Bold, Thonburi" font-size="8" font-weight="bold" id="INFO" letter-spacing="0.1351232">
<tspan x="4.7750661" y="17">INFO</tspan>
</text>
</g>
</g>
<g id="Middle-Top-Buttons" transform="translate(13.000000, 125.000000)">
<g id="KEY_PROGRAM" onclick="remote('KEY_PROGRAM')" transform="translate(65.000000, 173.000000)">
<path d="M18.5000067,1.5 C23.0334184,1.5 27.1464317,3.42790612 30.1890205,6.55275006 C32.9528832,9.39133253 34.8361983,13.2152278 35.3687205,17.5001462 L1.63129289,17.5001462 C2.16381504,13.2152278 4.04713015,9.39133253 6.81099281,6.55275006 C9.85358169,3.42790612 13.9665949,1.5 18.5000067,1.5 Z" fill="#4B4B4B" id="Combined-Shape-Copy-3" stroke="#C5C1C1" stroke-width="3" transform="translate(18.500007, 9.500073) rotate(-180.000000) translate(-18.500007, -9.500073) "/>
<text fill="#C5C1C1" font-family="Thonburi-Bold, Thonburi" font-size="6" font-weight="bold" id="LIVE" letter-spacing="0.1013424">
<tspan x="12.2301333" y="9.00070843">LIVE</tspan>
</text>
<text fill="#C5C1C1" font-family="Thonburi-Bold, Thonburi" font-size="6" font-weight="bold" id="TV" letter-spacing="0.1013424">
<tspan x="14.551007" y="14.0004836">TV</tspan>
</text>
</g>
<g id="KEY_ZOOMIN" onclick="remote('KEY_ZOOMIN')" transform="translate(65.000000, 149.000000)">
<path d="M18.5,1.5 C22.8963888,1.5 26.8997005,3.29845794 29.9207657,6.23787274 C32.644462,8.88795562 34.572114,12.4630545 35.2863848,16.5 L1.71361515,16.5 C2.42788604,12.4630545 4.35553799,8.88795562 7.07923428,6.23787274 C10.1002995,3.29845794 14.1036112,1.5 18.5,1.5 Z" fill="#4B4B4B" id="Combined-Shape-Copy-2" stroke="#C5C1C1" stroke-width="3"/>
<text fill="#C5C1C1" font-family="Thonburi-Bold, Thonburi" font-size="7" font-weight="bold" id="ZOOM" letter-spacing="0.1182328">
<tspan x="8.84595877" y="13.0005548">ZOOM</tspan>
</text>
</g>
<g id="Group-6" transform="translate(32.000000, 40.000000)">
<g id="KEY_LEFT" onclick="remote('KEY_LEFT')" transform="translate(0.000000, 18.000000)">
<path d="M-21,33.5771526 L-8.71083522,21.0218705 C3.89129074,29.3476214 20.1696287,29.3565135 32.5821695,21 L45,33.6866042 C25.7128855,48.8240008 -1.41914895,48.7544828 -21,33.5771526 Z" fill="#C5C1C1" id="Path-Copy-4" transform="translate(12.000000, 33.000000) rotate(90.000000) translate(-12.000000, -33.000000) "/>
<polygon fill="#4B4B4B" id="Triangle-Copy-5" points="5.73358965 29.6820395 11.7937698 38.7396159 -0.326590535 38.7396159" transform="translate(5.733590, 34.210862) rotate(270.000000) translate(-5.733590, -34.210862) "/>
</g>
<g id="KEY_RIGHT" onclick="remote('KEY_RIGHT')" transform="translate(79.000000, 18.000000)">
<path d="M-21,33.5771526 L-8.71083522,21.0218705 C3.89129074,29.3476214 20.1696287,29.3565135 32.5821695,21 L45,33.6866042 C25.7128855,48.8240008 -1.41914895,48.7544828 -21,33.5771526 Z" fill="#C5C1C1" id="Path-Copy-3" transform="translate(12.000000, 33.000000) rotate(270.000000) translate(-12.000000, -33.000000) "/>
<polygon fill="#4B4B4B" id="Triangle-Copy-6" points="15.7719659 28.9491619 21.832146 38.0067383 9.71178568 38.0067383" transform="translate(15.771966, 33.477950) rotate(90.000000) translate(-15.771966, -33.477950) "/>
</g>
<g id="KEY_UP" onclick="remote('KEY_UP')" transform="translate(18.000000, 0.000000)">
<path d="M0,12.5771526 L12.2891648,0.021870454 C24.8912907,8.34762139 41.1696287,8.35651349 53.5821695,0 L66,12.6866042 C46.7128855,27.8240008 19.580851,27.7544828 0,12.5771526 Z" fill="#C5C1C1" id="Path-Copy" transform="translate(33.000000, 12.000000) rotate(180.000000) translate(-33.000000, -12.000000) "/>
<polygon fill="#4B4B4B" id="Triangle-Copy-3" points="34.1549444 3.69348917 40.169156 13.0269239 28.1407328 13.0269239"/>
</g>
<g id="KEY_DOWN" onclick="remote('KEY_DOWN')" transform="translate(19.000000, 78.000000)">
<path d="M0,12.5771526 L12.2891648,0.021870454 C24.8912907,8.34762139 41.1696287,8.35651349 53.5821695,0 L66,12.6866042 C46.7128855,27.8240008 19.580851,27.7544828 0,12.5771526 Z" fill="#C5C1C1" id="Path"/>
<polygon fill="#4B4B4B" id="Triangle-Copy-4" points="32.7217833 10.3279792 38.7359949 19.6614139 26.7075716 19.6614139" transform="translate(32.721783, 14.994697) rotate(180.000000) translate(-32.721783, -14.994697) "/>
</g>
<g id="KEY_ENTER" onclick="remote('KEY_ENTER')" transform="translate(31.000000, 31.000000)">
<ellipse cx="20.5" cy="20" fill="#4E4E4E" id="Oval" rx="20.5" ry="20"/>
<text fill="#9C9999" font-family="Thonburi-Bold, Thonburi" font-size="14" font-weight="bold" id="OK" letter-spacing="0.2364656">
<tspan x="11.0931174" y="20.6095433">OK</tspan>
</text>
<text fill="#9C9999" font-family="Thonburi-Bold, Thonburi" font-size="7" font-weight="bold" id="ENTER" letter-spacing="0.1182328">
<tspan x="9.78575885" y="30.4670231">ENTER</tspan>
</text>
</g>
</g>
<g id="KEY_EXIT" onclick="remote('KEY_EXIT')" transform="translate(132.358130, 149.370401) rotate(-35.000000) translate(-132.358130, -149.370401) translate(109.858130, 139.036628)">
<rect fill="#4B4B4B" height="17.6675462" id="Rectangle" rx="8.83377309" stroke="#C5C1C1" stroke-width="3" width="42" x="1.5" y="1.5"/>
<text fill="#C5C1C1" font-family="Thonburi-Bold, Thonburi" font-size="10" font-weight="bold" id="EXIT" letter-spacing="0.168904">
<tspan x="11.6446894" y="14.5455167">EXIT</tspan>
</text>
</g>
<g id="KEY_BACK" onclick="remote('KEY_BACK')" transform="translate(34.358130, 149.371627) rotate(35.000000) translate(-34.358130, -149.371627) translate(11.858130, 139.037854)">
<rect fill="#4B4B4B" height="17.6675462" id="Rectangle" rx="8.83377309" stroke="#C5C1C1" stroke-width="3" width="42" x="1.5" y="1.5"/>
<text fill="#C5C1C1" font-family="Thonburi-Bold, Thonburi" font-size="10" font-weight="bold" id="BACK" letter-spacing="0.168904">
<tspan x="8.97867378" y="14.5455167">BACK</tspan>
</text>
</g>
<g id="KEY_MENU" onclick="remote('KEY_MENU')" transform="translate(132.273534, 33.438507) rotate(35.000000) translate(-132.273534, -33.438507) translate(109.731102, 23.051304)">
<rect fill="#4B4B4B" height="17.7744057" id="Rectangle" rx="8.88720283" stroke="#C5C1C1" stroke-width="3" width="42.0848649" x="1.5" y="1.5"/>
<text fill="#C5C1C1" font-family="Thonburi-Bold, Thonburi" font-size="10" font-weight="bold" id="MENU" letter-spacing="0.168904">
<tspan x="8.71680931" y="14.597456">MENU</tspan>
</text>
</g>
<g id="KEY_G" onclick="remote('KEY_G')" transform="translate(34.423534, 33.438507) rotate(-35.000000) translate(-34.423534, -33.438507) translate(11.881102, 23.051304)">
<rect fill="#4B4B4B" height="17.7744057" id="Rectangle" rx="8.88720283" stroke="#C5C1C1" stroke-width="3" width="42.0848649" x="1.5" y="1.5"/>
<text fill="#C5C1C1" font-family="Thonburi-Bold, Thonburi" font-size="10" font-weight="bold" id="GUIDE" letter-spacing="0.168904">
<tspan x="8.03079481" y="14.597456">GUIDE</tspan>
</text>
</g>
<g id="KEY_PAGEUP" onclick="remote('KEY_PAGEUP')" transform="translate(144.000185, 48.000000)">
<g id="button" transform="translate(0.000000, 10.000000)">
<path d="M1.21601281,1.05426145 C4.82831619,0.818797477 8.18670859,1.35184611 10.8159149,2.49568479 C13.4664285,3.64879326 15.3916824,5.42109238 15.8819688,7.70084817 C16.3671687,9.95695238 15.3282327,12.2299506 13.3710178,14.1741358 C11.4000984,16.1319342 8.48967133,17.7640896 5.02333171,18.7632578 Z" fill="#4B4B4B" id="Path" stroke="#C5C1C1" stroke-width="2"/>
<polygon fill="#C5C1C1" id="Path" points="9.49802236 5.49993382 9.49707793 7.99893382 11.9979811 7.99990374 11.9979811 9.99987968 9.49707793 9.99893382 9.49802236 12.4998496 7.49805538 12.4998496 7.49708625 9.99893382 4.99809665 9.99987968 4.99809665 7.99990374 7.49708625 7.99893382 7.49805538 5.49993382"/>
</g>
<text fill="#E6E6E6" font-family="Thonburi-Bold, Thonburi" font-size="6" font-weight="bold" id="DAY-Copy" letter-spacing="0.075">
<tspan x="10.1917969" y="6">DAY</tspan>
</text>
</g>
<g id="KEY_PAGEDOWN" onclick="remote('KEY_PAGEDOWN')" transform="translate(0.000000, 48.000000)">
<g id="button" transform="translate(3.607045, 10.000075)">
<path d="M5.9899048,2.49007926 C8.50951313,1.35336232 11.7259637,0.822419084 15.1860256,1.05216076 L11.5162286,18.7504491 C8.20433093,17.7522306 5.42345818,16.1301422 3.53723615,14.1870208 C1.64334063,12.2359945 0.645730775,9.95427682 1.11453141,7.69361978 C1.58646971,5.41783228 3.43603558,3.64225293 5.9899048,2.49007926 Z" fill="#4B4B4B" id="Path" stroke="#C5C1C1" stroke-width="2"/>
<rect fill="#C5C1C1" height="1.99999916" id="Rectangle" width="6.75014577" x="3.85722615" y="7.99999666"/>
</g>
<text fill="#E6E6E6" font-family="Thonburi-Bold, Thonburi" font-size="6" font-weight="bold" id="DAY" letter-spacing="0.075">
<tspan x="0.191796875" y="6">DAY</tspan>
</text>
</g>
<g id="KEY_D" onclick="remote('KEY_D')" transform="translate(56.000000, 0.000000)">
<rect fill="#5C7493" height="17" id="Rectangle-Copy-19" rx="8.5" stroke="#C5C1C1" stroke-width="3" width="53" x="1.5" y="1.5"/>
<text fill="#C5C1C1" font-family="Thonburi-Bold, Thonburi" font-size="6" font-weight="bold" id="ON" letter-spacing="0.1013424">
<tspan x="23.5685795" y="9">ON</tspan>
</text>
<text fill="#C5C1C1" font-family="Thonburi-Bold, Thonburi" font-size="6" font-weight="bold" id="DEMAND" letter-spacing="0.1013424">
<tspan x="15.0924572" y="15">DEMAND</tspan>
</text>
</g>
</g>
<g id="Top-Buttons" transform="translate(19.000000, 20.000000)">
<g id="KEY_GOTO" onclick="remote('KEY_GOTO')" transform="translate(109.764090, 85.026765)">
<g id="button" transform="translate(14.117955, 0.000000)">
<path d="M11.7446809,2.15519253 C12.2431867,2.15519253 12.7416926,2.34053373 13.1284916,2.71121612 L21.0479576,10.3007044 C21.4467007,10.6828332 21.6528065,11.1904085 21.6636944,11.7021373 C21.6744569,12.2079769 21.4944689,12.7178751 21.1212378,13.1146786 L13.6391299,20.2887839 C13.2523309,20.6594663 12.753825,20.8448075 12.2553191,20.8448075 C11.7568133,20.8448075 11.2583074,20.6594663 10.8715084,20.2887839 L2.95204235,12.6992956 C2.55329928,12.3171668 2.34719347,11.8095915 2.33630562,11.2978627 C2.32554307,10.7920231 2.50553107,10.2821249 2.87876222,9.88532143 L10.3608701,2.71121612 C10.7476691,2.34053373 11.246175,2.15519253 11.7446809,2.15519253 Z" fill="#79B279" id="Rectangle-Copy-21" stroke="#C5C1C1" stroke-width="2"/>
<text fill="#C5C1C1" font-family="Thonburi-Bold, Thonburi" font-size="8" font-weight="bold" id="GO" letter-spacing="0.1351232">
<tspan x="6.2289393" y="14">GO</tspan>
</text>
</g>
<text fill="#E6E6E6" font-family="Thonburi-Bold, Thonburi" font-size="7" font-weight="bold" id="INTERACTIVE" letter-spacing="0.1182328" transform="translate(22.117955, 27.957784) rotate(35.000000) translate(-22.117955, -27.957784) ">
<tspan x="-1.1592783" y="30.9577836">INTERACTIVE</tspan>
</text>
</g>
<g id="KEY_C" onclick="remote('KEY_C')" transform="translate(88.816063, 73.000000)">
<circle cx="9.5" cy="9.5" fill="#974A4A" id="Oval" r="8.5" stroke="#C5C1C1" stroke-width="2"/>
<text fill="#C5C1C1" font-family="Thonburi-Bold, Thonburi" font-size="12" font-weight="bold" id="C" letter-spacing="0.2026848">
<tspan x="4.9892826" y="14">C</tspan>
</text>
</g>
<g id="KEY_B" onclick="remote('KEY_B')" transform="translate(46.996745, 73.000000)">
<rect fill="#5C7493" height="17" id="Rectangle" rx="5" stroke="#C5C1C1" stroke-width="2" width="18" x="1" y="1"/>
<text fill="#C5C1C1" font-family="Thonburi-Bold, Thonburi" font-size="12" font-weight="bold" id="B" letter-spacing="0.2026848">
<tspan x="6.08068885" y="14">B</tspan>
</text>
</g>
<g id="KEY_A" onclick="remote('KEY_A')" transform="translate(0.000000, 83.971148)">
<path d="M12.2528769,4.9572488 C12.9964537,4.76604332 13.812973,4.85850285 14.5261879,5.27994801 C14.9618634,5.53739262 15.325335,5.90086415 15.5827796,6.33653966 L21.572986,16.4738121 C21.9944312,17.187027 22.0868907,18.0035463 21.8956852,18.7471231 C21.7044797,19.4907 21.2296092,20.1613344 20.5163944,20.5827796 C20.0541646,20.8559154 19.5271045,21 18.9902064,21 L7.00979358,21 C6.18136645,21 5.43136645,20.6642136 4.88847323,20.1213203 C4.34558002,19.5784271 4.00979358,18.8284271 4.00979358,18 C4.00979358,17.4631019 4.15387821,16.9360419 4.42701399,16.4738121 L10.4172204,6.33653966 C10.8386656,5.62332477 11.5093,5.14845428 12.2528769,4.9572488 Z" fill="#938D21" id="Triangle" stroke="#C5C1C1" stroke-width="2"/>
<text fill="#C5C1C1" font-family="Thonburi-Bold, Thonburi" font-size="12" font-weight="bold" id="A" letter-spacing="0.2026848">
<tspan x="8.53693885" y="18">A</tspan>
</text>
</g>
<g id="dvd-button" transform="translate(2.000000, 42.236490)">
<g id="button" transform="translate(0.000000, 11.000000)">
<circle cx="9.5" cy="9.5" fill="#C5C1C1" id="Oval-Copy-2" r="9.5"/>
<circle cx="9.5" cy="9.5" id="Oval" r="6" stroke="#4B4B4B"/>
<path d="M9.50427455,12.7260279 L10.1402018,13.6668907 L9.24565337,13.6205195 L9.50427455,12.7260279 Z M9.5,7.5 C10.0522847,7.5 10.5522847,7.72385763 10.9142136,8.08578644 C11.2761424,8.44771525 11.5,8.94771525 11.5,9.5 C11.5,10.0522847 11.2761424,10.5522847 10.9142136,10.9142136 C10.5522847,11.2761424 10.0522847,11.5 9.5,11.5 C8.94771525,11.5 8.44771525,11.2761424 8.08578644,10.9142136 C7.72385763,10.5522847 7.5,10.0522847 7.5,9.5 C7.5,8.94771525 7.72385763,8.44771525 8.08578644,8.08578644 C8.44771525,7.72385763 8.94771525,7.5 9.5,7.5 Z M10.6741433,5.21150598 L11.8466622,5.6809007 L11.5622901,6.15846643 C11.2940753,5.94836691 10.969274,5.80564499 10.5843803,5.73577968 L10.6741433,5.21150598 Z" id="Shape" stroke="#4B4B4B"/>
</g>
<text fill="#E6E6E6" font-family="Thonburi-Bold, Thonburi" font-size="7" font-weight="bold" id="DVD" letter-spacing="0.0875">
<tspan x="2.29453125" y="8">DVD</tspan>
</text>
</g>
<g id="stb-button" transform="translate(131.674641, 42.236490)">
<g id="button" transform="translate(0.000000, 11.000000)">
<circle cx="9.5" cy="9.5" fill="#C5C1C1" id="Oval-Copy-6" r="9.5"/>
<g id="Group-37" transform="translate(3.000000, 7.000000)">
<path d="M1.5,4 C1.77614237,4 2,3.77614237 2,3.5 C2,3.22385763 1.77614237,3 1.5,3 C1.22385763,3 1,3.22385763 1,3.5 C1,3.77614237 1.22385763,4 1.5,4 Z M10.5,4 C10.7761424,4 11,3.77614237 11,3.5 C11,3.22385763 10.7761424,3 10.5,3 C10.2238576,3 10,3.22385763 10,3.5 C10,3.77614237 10.2238576,4 10.5,4 Z M4,3 L9,3 L9,4 L4,4 L4,3 Z" fill="#4B4B4B" id="Shape"/>
<polygon fill="#4B4B4B" id="Path-3" points="0 2 1.73254539 0 11.5221356 0 13 2"/>
<path d="M12.9,2.1 L12.9,4.9 L0.1,4.9 L0.1,2.1 L12.9,2.1 Z" id="Rectangle" stroke="#4B4B4B" stroke-width="0.2"/>
</g>
</g>
<text fill="#E6E6E6" font-family="Thonburi-Bold, Thonburi" font-size="7" font-weight="bold" id="STB" letter-spacing="0.0875">
<tspan x="3.11757813" y="8">STB</tspan>
</text>
</g>
<g id="audio-button" transform="translate(29.784689, 34.000000)">
<g id="button" transform="translate(1.000000, 11.000000)">
<circle cx="9.5" cy="9.5" fill="#C5C1C1" id="Oval-Copy-3" r="9.5"/>
<path d="M12.8514778,5 L12.941,5.5 L12.9664746,5.50013476 L12.966,5.637 L13,5.82065838 L12.966,5.826 L12.9664746,12.1666816 L12.9388798,12.1668011 C12.7806678,12.6396872 11.9611383,13 10.9739247,13 C9.87346974,13 8.98137476,12.5522847 8.98137476,12 C8.98137476,11.4477153 9.87346974,11 10.9739247,11 C11.3370991,11 11.6775801,11.0487627 11.9707913,11.133954 L11.97,5.997 L7.985,6.681 L7.98509981,13 C7.98509981,13.5522847 7.09300483,14 5.99254991,14 C4.89209498,14 4,13.5522847 4,13 C4,12.4477153 4.89209498,12 5.99254991,12 C6.35534608,12 6.69549607,12.0486612 6.98850026,12.133688 L6.98882486,6.33345312 L7.013,6.333 L6.95529899,6.0129295 L12.8514778,5 Z" fill="#4B4B4B" id="Path"/>
</g>
<text fill="#E6E6E6" font-family="Thonburi-Bold, Thonburi" font-size="7" font-weight="bold" id="AUDIO" letter-spacing="0.0875">
<tspan x="0.032421875" y="8">AUDIO</tspan>
</text>
</g>
<g id="tv-button" transform="translate(101.928230, 34.000000)">
<g id="button" transform="translate(0.000000, 11.000000)">
<circle cx="9.5" cy="9.5" fill="#C5C1C1" id="Oval-Copy-5" r="9.5"/>
<g id="Group-35" transform="translate(3.000000, 3.000000)">
<path d="M12.4060124,2.21609584 L12.8941091,10.4041557 L0.593987562,10.8961605 L0.105890871,2.7081007 L12.4060124,2.21609584 Z" fill="#4B4B4B" id="Path" stroke="#C5C1C1" stroke-width="0.2"/>
<rect fill="#4B4B4B" height="7.11268949" id="Rectangle" rx="0.300000012" stroke="#C5C1C1" stroke-width="0.2" width="11.2" x="0.9" y="2.99978344"/>
<path d="M4.86087912,2.80664381e-13 L6.5,2.6060199 L6.5,2.6060199 M8.55119889,1.35308431e-16 L6.57177033,2.5" id="Combined-Shape" stroke="#4B4B4B" stroke-linecap="round" stroke-width="0.5"/>
</g>
</g>
<text fill="#E6E6E6" font-family="Thonburi-Bold, Thonburi" font-size="7" font-weight="bold" id="TV" letter-spacing="0.0875">
<tspan x="4.84023437" y="8">TV</tspan>
</text>
</g>
<g id="KEY_POWER" onclick="remote('KEY_POWER')" transform="translate(66.000000, 39.000000)">
<circle cx="10" cy="10" fill="#4B4B4B" id="Oval-Copy-4" r="9" stroke="#C5C1C1" stroke-width="2"/>
<rect fill="#C5C1C1" height="2.5" id="Rectangle" width="1" x="9.5" y="4.5"/>
<path d="M15,10 C15,12.7614237 12.7614237,15 10,15 C7.23857625,15 5,12.7614237 5,10 C5,7.5811085 6.71766536,5.56339924 8.99981203,5.10005628 L9.00024347,6.12595483 C7.27489272,6.56991294 6,8.13607289 6,10 C6,12.209139 7.790861,14 10,14 C12.209139,14 14,12.209139 14,10 C14,8.13643475 12.7256022,6.57052105 11.0007613,6.12621352 L11.0011864,5.10025909 C13.2828356,5.56398776 15,7.58146126 15,10 Z" fill="#C5C1C1" id="Path"/>
</g>
<g id="watch-tv-button" transform="translate(38.000000, 0.000000)">
<path d="M65,1.5 C67.8994949,1.5 70.5244949,2.67525253 72.4246212,4.5753788 C74.3247475,6.47550506 75.5,9.10050506 75.5,12 C75.5,14.8994949 74.3247475,17.5244949 72.4246212,19.4246212 C70.5244949,21.3247475 67.8994949,22.5 65.0000369,22.5 L51.5334604,22.4996686 C47.5917703,20.5996693 42.9588393,19.5 38,19.5 C33.0411601,19.5 28.4082286,20.5996695 24.4665382,22.4996693 L12,22.5 C9.10050506,22.5 6.47550506,21.3247475 4.5753788,19.4246212 C2.67525253,17.5244949 1.5,14.8994949 1.5,12 C1.5,9.10050506 2.67525253,6.47550506 4.5753788,4.5753788 C6.47550506,2.67525253 9.10050506,1.5 12,1.5 Z" fill="#4B4B4B" id="Path" stroke="#C5C1C1" stroke-width="3"/>
<text fill="#E6E6E6" font-family="Thonburi-Bold, Thonburi" font-size="9" font-weight="bold" id="WATCH-TV" letter-spacing="0.1125">
<tspan x="13.8773438" y="15">WATCH TV</tspan>
</text>
</g>
<g id="input-button" transform="translate(7.000000, 11.020114)">
<g id="button" transform="translate(4.000000, 5.000000)">
<circle cx="9" cy="9" fill="#4B4B4B" id="Oval-Copy-7" r="8" stroke="#C5C1C1" stroke-width="2"/>
<g id="Group-12" transform="translate(4.500000, 6.000000)">
<rect fill="#C5C1C1" height="6" id="Rectangle" width="9" x="0" y="0"/>
<path d="M5.5,2.70710678 L6.29289322,3.5 L4.70710678,3.5 L5.5,2.70710678 Z" fill="#D8D8D8" id="Triangle" stroke="#4B4B4B" transform="translate(5.500000, 3.000000) rotate(90.000000) translate(-5.500000, -3.000000) "/>
<line fill="#D8D8D8" id="Line-6" stroke="#4B4B4B" stroke-linecap="square" x1="0.5" x2="4" y1="3" y2="3"/>
</g>
</g>
<text fill="#E6E6E6" font-family="Thonburi-Bold, Thonburi" font-size="4" font-weight="bold" id="VIDEO-INPUT" letter-spacing="0.05">
<tspan x="0.23515625" y="4">VIDEO INPUT</tspan>
</text>
</g>
<g id="setup-button" transform="translate(132.000000, 15.020114)">
<circle cx="7" cy="12" fill="#4B4B4B" id="Oval-Copy-8" r="6" stroke="#C5C1C1" stroke-width="2"/>
<text fill="#E6E6E6" font-family="Thonburi-Bold, Thonburi" font-size="4" font-weight="bold" id="SETUP" letter-spacing="0.05">
<tspan x="0.61953125" y="4">SETUP</tspan>
</text>
</g>
</g>
</g>
</svg>